<?xml version="1.0" standalone="no"?>
<!DOCTYPE svg PUBLIC "-//W3C//DTD SVG 20010904//EN"
 "http://www.w3.org/TR/2001/REC-SVG-20010904/DTD/svg10.dtd">
<svg version="1.0" xmlns="http://www.w3.org/2000/svg"
 width="512.000000pt" height="512.000000pt" viewBox="0 0 512.000000 512.000000"
 preserveAspectRatio="xMidYMid meet">
<metadata>
Created by potrace 1.14, written by Peter Selinger 2001-2017
</metadata>
<g transform="translate(0.000000,512.000000) scale(0.100000,-0.100000)"
fill="#000000" stroke="none">
<path d="M730 5101 c-173 -37 -333 -123 -456 -245 -126 -126 -201 -257 -247
-428 l-22 -83 0 -1785 0 -1785 23 -85 c93 -352 377 -615 727 -675 66 -12 417
-14 1970 -14 1868 -1 1892 -1 1964 19 168 47 297 153 371 303 64 132 60 1 57
2117 l-2 1925 -28 88 c-83 266 -242 455 -482 573 -49 24 -126 54 -170 67 l-80
22 -1770 2 c-1673 2 -1775 1 -1855 -16z m3592 -580 c109 -42 196 -147 214
-259 3 -22 7 -860 8 -1861 1 -1815 1 -1821 -19 -1822 -11 0 -837 -1 -1836 -1
-1650 0 -1821 1 -1872 16 -103 30 -193 120 -223 224 -15 52 -17 205 -17 1742
0 1284 3 1696 13 1730 35 132 150 232 284 249 28 3 802 5 1721 5 l1670 -2 57
-21z"/>
<path d="M2140 3893 c-205 -88 -425 -212 -509 -288 -39 -34 -71 -98 -64 -126
13 -49 105 -96 223 -114 25 -4 52 -9 62 -10 31 -6 214 -16 380 -20 244 -6 434
-51 571 -136 26 -16 52 -29 57 -29 6 0 10 -4 10 -8 0 -4 14 -16 32 -26 55 -33
192 -179 249 -266 166 -253 257 -561 295 -1000 12 -143 5 -530 -12 -632 -2
-16 0 -28 4 -28 15 0 59 188 77 330 4 30 11 82 15 115 9 66 6 469 -4 525 -3
19 -8 51 -11 70 -35 271 -154 595 -301 824 -130 201 -303 393 -489 541 -27 22
-52 42 -55 45 -11 12 -197 138 -240 163 -125 72 -190 107 -197 107 -4 0 -46
-17 -93 -37z"/>
<path d="M2481 2893 c-77 -19 -124 -47 -174 -103 -200 -222 -39 -567 260 -556
174 6 312 143 319 317 3 80 -9 127 -52 195 -74 119 -223 181 -353 147z"/>
</g>
</svg>
